<?xml version="1.0" encoding="utf-8"?>
<!-- Generator: Adobe Illustrator 16.0.0, SVG Export Plug-In . SVG Version: 6.00 Build 0)  -->
<!DOCTYPE svg PUBLIC "-//W3C//DTD SVG 1.1//EN" "http://www.w3.org/Graphics/SVG/1.1/DTD/svg11.dtd">
<svg version="1.1" id="Layer_1" xmlns="http://www.w3.org/2000/svg" xmlns:xlink="http://www.w3.org/1999/xlink" x="0px" y="0px"
	 width="100px" height="100px" viewBox="0 0 100 100" enable-background="new 0 0 100 100" xml:space="preserve">
<g>
	<g>
		<defs>
			<rect id="SVGID_1_" x="13.852" y="13.872" width="69.757" height="69.758"/>
		</defs>
		<clipPath id="SVGID_2_">
			<use xlink:href="#SVGID_1_"  overflow="visible"/>
		</clipPath>
		<path clip-path="url(#SVGID_2_)" d="M83.609,48.75c0-0.818-0.664-1.481-1.481-1.481H50.213V15.354
			c0-0.818-0.664-1.481-1.482-1.481s-1.481,0.664-1.481,1.481v31.916H15.333c-0.818,0-1.481,0.664-1.481,1.481
			c0,0.818,0.664,1.481,1.481,1.481h31.916v31.916c0,0.817,0.664,1.481,1.481,1.481c0.818,0,1.482-0.664,1.482-1.481V50.232h31.915
			C82.945,50.232,83.609,49.569,83.609,48.75"/>
	</g>
</g>
</svg>
